# xmcd
#
# Track frame offsets:
#	150
#	9458
#	20618
#	31366
#	40951
#	52374
#	61944
#	71544
#	83417
#	94345
#	106435
#	117363
#
# Disc length: 1702 seconds
#
# Revision: 1
# Processed by: cddbd v1.5.2PL0 Copyright (c) Steve Scherf et al.
# Submitted via: audiograbber 1.83.01
#
DISCID=9e06a40c
DTITLE=Various Artist - A Country Christmas
DYEAR=1963
DGENRE=Country
TTITLE0=Jolly Old Saint Nicholas
TTITLE1=White Christmas
TTITLE2=Tag Along
TTITLE3=Blue Christmas
TTITLE4=Old-Fashioned Christmas
TTITLE5=Silent Night
TTITLE6=Here Comes Santa Claus ( Right Down Santa Clause Lane )
TTITLE7=Christmas Is Just Another Day For Me
TTITLE8=Captain Santa Claus ( And His Reindeer Space Patrol )
TTITLE9=Christmas Time's Comin'
TTITLE10=Gently Rock His Cradle
TTITLE11=Away In A Manger
EXTD=
EXTT0=
EXTT1=
EXTT2=
EXTT3=
EXTT4=
EXTT5=
EXTT6=
EXTT7=
EXTT8=
EXTT9=
EXTT10=
EXTT11=
PLAYORDER=
